<svg xmlns="http://www.w3.org/2000/svg" xmlns:xlink="http://www.w3.org/1999/xlink" width="500" zoomAndPan="magnify" viewBox="0 0 375 374.999991" height="500" preserveAspectRatio="xMidYMid meet" version="1.0"><defs><g/><clipPath id="828faf035d"><path d="M 128 76.832031 L 247 76.832031 L 247 236.582031 L 128 236.582031 Z M 128 76.832031 " clip-rule="nonzero"/></clipPath><clipPath id="4be90daedc"><rect x="0" width="198" y="0" height="66"/></clipPath></defs><rect x="-37.5" width="450" fill="#ffffff" y="-37.499999" height="449.999989" fill-opacity="1"/><rect x="-37.5" width="450" fill="#ff5757" y="-37.499999" height="449.999989" fill-opacity="1"/><g clip-path="url(#828faf035d)"><path fill="#fff9e5" d="M 187.496094 76.828125 C 187.496094 76.828125 169.726562 93.226562 161.679688 113.382812 C 153.132812 134.785156 158.429688 142.972656 154.402344 147.410156 C 149.828125 152.457031 140.789062 148.351562 143.828125 126.433594 C 134.8125 143.171875 128 161.152344 128 177.277344 C 128 198.464844 139.082031 217.066406 155.761719 227.605469 L 157.644531 217.847656 C 158.460938 213.617188 156.953125 209.304688 153.753906 206.421875 C 150.867188 203.816406 149.359375 200.5625 150.636719 193.917969 C 153.007812 181.621094 163.363281 165.910156 172.078125 167.589844 C 180.792969 169.269531 184.566406 187.707031 182.195312 200.003906 C 180.914062 206.644531 178.304688 209.105469 174.65625 210.449219 C 170.613281 211.933594 167.609375 215.378906 166.796875 219.613281 L 164.382812 232.113281 C 171.488281 235.113281 179.300781 236.769531 187.496094 236.769531 C 195.550781 236.769531 203.230469 235.164062 210.238281 232.261719 L 208.195312 221.652344 C 207.386719 217.453125 204.441406 213.972656 200.421875 212.519531 C 196.726562 211.179688 194.085938 208.734375 192.792969 202.039062 L 187.800781 176.136719 C 187.429688 174.222656 188.683594 172.371094 190.597656 172.003906 C 191.554688 171.816406 192.496094 172.035156 193.242188 172.546875 C 193.996094 173.050781 194.546875 173.84375 194.730469 174.800781 L 199.8125 201.152344 L 204.699219 200.210938 L 199.714844 174.351562 C 199.292969 172.164062 200.722656 170.050781 202.910156 169.628906 C 204.003906 169.417969 205.082031 169.667969 205.933594 170.246094 C 206.789062 170.824219 207.425781 171.734375 207.632812 172.824219 L 212.621094 198.683594 L 217.507812 197.742188 L 212.425781 171.390625 C 212.054688 169.472656 213.308594 167.625 215.222656 167.253906 C 216.179688 167.070312 217.121094 167.289062 217.871094 167.796875 C 218.621094 168.300781 219.175781 169.097656 219.359375 170.054688 L 224.351562 195.957031 C 225.644531 202.648438 224.097656 205.90625 221.167969 208.519531 C 217.976562 211.363281 216.535156 215.6875 217.34375 219.886719 L 218.875 227.824219 C 235.753906 217.328125 246.992188 198.613281 246.992188 177.277344 C 246.992188 134.914062 195.003906 121.710938 187.496094 76.828125 " fill-opacity="1" fill-rule="nonzero"/></g><path fill="#d9cb9a" d="M 178.175781 213.34375 C 181.824219 212 184.4375 209.539062 185.71875 202.894531 C 187.9375 191.375 184.765625 174.457031 177.183594 170.996094 C 182.175781 177.238281 184.035156 190.464844 182.195312 200.003906 C 180.914062 206.644531 178.304688 209.105469 174.65625 210.449219 C 170.613281 211.933594 167.609375 215.378906 166.796875 219.613281 L 164.382812 232.113281 C 165.628906 232.640625 166.898438 233.121094 168.183594 233.5625 L 170.316406 222.503906 C 171.132812 218.277344 174.132812 214.832031 178.175781 213.34375 " fill-opacity="1" fill-rule="nonzero"/><path fill="#d9cb9a" d="M 225.566406 208.519531 C 228.5 205.90625 230.042969 202.648438 228.753906 195.957031 L 223.761719 170.054688 C 223.574219 169.097656 223.019531 168.300781 222.273438 167.796875 C 221.523438 167.289062 220.582031 167.070312 219.625 167.253906 C 219.042969 167.367188 218.523438 167.617188 218.09375 167.960938 C 218.726562 168.464844 219.195312 169.195312 219.359375 170.054688 L 224.351562 195.957031 C 225.644531 202.648438 224.097656 205.90625 221.167969 208.519531 C 217.976562 211.363281 216.535156 215.6875 217.34375 219.886719 L 218.875 227.824219 C 220.207031 226.996094 221.503906 226.109375 222.765625 225.179688 L 221.746094 219.886719 C 220.933594 215.6875 222.378906 211.363281 225.566406 208.519531 " fill-opacity="1" fill-rule="nonzero"/><g transform="matrix(1, 0, 0, 1, 88, 231)"><g clip-path="url(#4be90daedc)"><g fill="#fff9e5" fill-opacity="1"><g transform="translate(1.354756, 49.380105)"><g><path d="M 23.53125 -5 L 12.515625 -5 L 10.875 0 L 0 0 L 12.09375 -33.0625 L 24.046875 -33.0625 L 36.09375 0 L 25.171875 0 Z M 21.015625 -12.796875 L 18.03125 -22 L 15.03125 -12.796875 Z M 21.015625 -12.796875 "/></g></g></g><g fill="#fff9e5" fill-opacity="1"><g transform="translate(34.274939, 49.380105)"><g><path d="M 12.703125 -7.84375 L 22.703125 -7.84375 L 22.703125 0 L 2.328125 0 L 2.328125 -33.0625 L 12.703125 -33.0625 Z M 12.703125 -7.84375 "/></g></g></g><g fill="#fff9e5" fill-opacity="1"><g transform="translate(54.727318, 49.380105)"><g><path d="M 35.640625 -33.0625 L 24.515625 0 L 11.109375 0 L 0 -33.0625 L 11.015625 -33.0625 L 17.84375 -10.328125 L 24.609375 -33.0625 Z M 35.640625 -33.0625 "/></g></g></g><g fill="#fff9e5" fill-opacity="1"><g transform="translate(87.180557, 49.380105)"><g><path d="M 12.46875 -33.0625 L 12.46875 -14.4375 C 12.46875 -12.90625 12.800781 -11.695312 13.46875 -10.8125 C 14.144531 -9.925781 15.226562 -9.484375 16.71875 -9.484375 C 18.21875 -9.484375 19.320312 -9.925781 20.03125 -10.8125 C 20.75 -11.695312 21.109375 -12.90625 21.109375 -14.4375 L 21.109375 -33.0625 L 31.4375 -33.0625 L 31.4375 -14.4375 C 31.4375 -11.289062 30.78125 -8.601562 29.46875 -6.375 C 28.164062 -4.144531 26.375 -2.46875 24.09375 -1.34375 C 21.820312 -0.226562 19.285156 0.328125 16.484375 0.328125 C 13.679688 0.328125 11.195312 -0.226562 9.03125 -1.34375 C 6.875 -2.46875 5.1875 -4.132812 3.96875 -6.34375 C 2.75 -8.5625 2.140625 -11.257812 2.140625 -14.4375 L 2.140625 -33.0625 Z M 12.46875 -33.0625 "/></g></g></g><g fill="#fff9e5" fill-opacity="1"><g transform="translate(117.579162, 49.380105)"><g><path d="M 12.703125 -24.796875 L 12.703125 -20.734375 L 22.984375 -20.734375 L 22.984375 -12.9375 L 12.703125 -12.9375 L 12.703125 -8.265625 L 24.375 -8.265625 L 24.375 0 L 2.328125 0 L 2.328125 -33.0625 L 24.375 -33.0625 L 24.375 -24.796875 Z M 12.703125 -24.796875 "/></g></g></g><g fill="#fff9e5" fill-opacity="1"><g transform="translate(140.366339, 49.380105)"><g><path d="M 12.703125 -7.84375 L 22.703125 -7.84375 L 22.703125 0 L 2.328125 0 L 2.328125 -33.0625 L 12.703125 -33.0625 Z M 12.703125 -7.84375 "/></g></g></g><g fill="#fff9e5" fill-opacity="1"><g transform="translate(160.818719, 49.380105)"><g><path d="M 18.453125 0.328125 C 15.335938 0.328125 12.476562 -0.398438 9.875 -1.859375 C 7.28125 -3.328125 5.21875 -5.351562 3.6875 -7.9375 C 2.164062 -10.519531 1.40625 -13.429688 1.40625 -16.671875 C 1.40625 -19.910156 2.164062 -22.820312 3.6875 -25.40625 C 5.21875 -27.988281 7.28125 -30.003906 9.875 -31.453125 C 12.476562 -32.898438 15.335938 -33.625 18.453125 -33.625 C 21.566406 -33.625 24.414062 -32.898438 27 -31.453125 C 29.582031 -30.003906 31.628906 -27.988281 33.140625 -25.40625 C 34.648438 -22.820312 35.40625 -19.910156 35.40625 -16.671875 C 35.40625 -13.429688 34.648438 -10.519531 33.140625 -7.9375 C 31.628906 -5.351562 29.570312 -3.328125 26.96875 -1.859375 C 24.375 -0.398438 21.535156 0.328125 18.453125 0.328125 Z M 18.453125 -9.34375 C 20.503906 -9.34375 22.085938 -10.003906 23.203125 -11.328125 C 24.328125 -12.648438 24.890625 -14.429688 24.890625 -16.671875 C 24.890625 -18.941406 24.328125 -20.738281 23.203125 -22.0625 C 22.085938 -23.382812 20.503906 -24.046875 18.453125 -24.046875 C 16.359375 -24.046875 14.75 -23.382812 13.625 -22.0625 C 12.507812 -20.738281 11.953125 -18.941406 11.953125 -16.671875 C 11.953125 -14.429688 12.507812 -12.648438 13.625 -11.328125 C 14.75 -10.003906 16.359375 -9.34375 18.453125 -9.34375 Z M 18.453125 -9.34375 "/></g></g></g></g></g><g fill="#fff9e5" fill-opacity="1"><g transform="translate(155.718277, 296.619854)"><g><path d="M 2.15625 -9.0625 L 2.15625 -3.328125 C 2.15625 -2.523438 2.351562 -1.925781 2.75 -1.53125 C 3.144531 -1.144531 3.691406 -0.953125 4.390625 -0.953125 C 5.085938 -0.953125 5.628906 -1.144531 6.015625 -1.53125 C 6.410156 -1.925781 6.609375 -2.523438 6.609375 -3.328125 L 6.609375 -9.0625 L 7.796875 -9.0625 L 7.796875 -3.34375 C 7.796875 -2.582031 7.644531 -1.941406 7.34375 -1.421875 C 7.039062 -0.910156 6.628906 -0.53125 6.109375 -0.28125 C 5.597656 -0.03125 5.019531 0.09375 4.375 0.09375 C 3.738281 0.09375 3.160156 -0.03125 2.640625 -0.28125 C 2.128906 -0.53125 1.722656 -0.910156 1.421875 -1.421875 C 1.117188 -1.941406 0.96875 -2.582031 0.96875 -3.34375 L 0.96875 -9.0625 Z M 2.15625 -9.0625 "/></g></g></g><g fill="#fff9e5" fill-opacity="1"><g transform="translate(174.89728, 296.619854)"><g><path d="M 3.828125 -9.0625 C 4.804688 -9.0625 5.65625 -8.875 6.375 -8.5 C 7.101562 -8.132812 7.660156 -7.609375 8.046875 -6.921875 C 8.429688 -6.242188 8.625 -5.441406 8.625 -4.515625 C 8.625 -3.585938 8.429688 -2.78125 8.046875 -2.09375 C 7.660156 -1.414062 7.101562 -0.894531 6.375 -0.53125 C 5.65625 -0.175781 4.804688 0 3.828125 0 L 1 0 L 1 -9.0625 Z M 3.828125 -0.96875 C 4.992188 -0.96875 5.882812 -1.273438 6.5 -1.890625 C 7.113281 -2.515625 7.421875 -3.390625 7.421875 -4.515625 C 7.421875 -5.640625 7.109375 -6.515625 6.484375 -7.140625 C 5.867188 -7.773438 4.984375 -8.09375 3.828125 -8.09375 L 2.1875 -8.09375 L 2.1875 -0.96875 Z M 3.828125 -0.96875 "/></g></g></g><g fill="#fff9e5" fill-opacity="1"><g transform="translate(194.492162, 296.619854)"><g><path d="M 2.1875 -0.96875 L 5.359375 -0.96875 L 5.359375 0 L 1 0 L 1 -9.0625 L 2.1875 -9.0625 Z M 2.1875 -0.96875 "/></g></g></g><g fill="#fff9e5" fill-opacity="1"><g transform="translate(210.513134, 296.619854)"><g><path d="M 6.359375 -2.015625 L 2.40625 -2.015625 L 1.671875 0 L 0.421875 0 L 3.703125 -9.015625 L 5.0625 -9.015625 L 8.328125 0 L 7.078125 0 Z M 6.015625 -2.984375 L 4.375 -7.546875 L 2.75 -2.984375 Z M 6.015625 -2.984375 "/></g></g></g></svg>